<!DOCTYPE svg PUBLIC "-//W3C//DTD SVG 1.1//EN" "http://www.w3.org/Graphics/SVG/1.1/DTD/svg11.dtd">
<!-- Uploaded to: SVG Repo, www.svgrepo.com, Transformed by: SVG Repo Mixer Tools -->
<svg version="1.1" id="Capa_1" xmlns="http://www.w3.org/2000/svg" xmlns:xlink="http://www.w3.org/1999/xlink" viewBox="0 0 462.54 462.54" xml:space="preserve" width="800px" height="800px" fill="#000000">
<g id="SVGRepo_bgCarrier" stroke-width="0"/>
<g id="SVGRepo_tracerCarrier" stroke-linecap="round" stroke-linejoin="round"/>
<g id="SVGRepo_iconCarrier"> <g> <path style="fill:#4CA9BF;" d="M449.699,329.728L392.27,182.502l-57.43,147.226l-9.316-3.634l62.088-159.168 c0.749-1.919,2.598-3.183,4.658-3.183c2.061,0,3.909,1.264,4.658,3.183l62.087,159.168L449.699,329.728z"/> <path style="fill:#4CA9BF;" d="M127.699,329.728L70.271,182.502l-57.43,147.226l-9.316-3.634l62.088-159.168 c0.749-1.919,2.598-3.183,4.658-3.183c2.061,0,3.909,1.264,4.658,3.183l62.087,159.168L127.699,329.728z"/> <rect x="205.998" y="74.748" style="fill:#E86B2D;" width="39.181" height="337.3"/> <path style="fill:#FFB600;" d="M225.589,108.815c-41.128-0.426-82.35,10.93-118.21,34.068 c-25.247,16.292-57.111,18.368-84.159,5.307c0,0,16.623,23.004,52.341,23.004c11.553,0,25.105-2.408,40.733-8.774 c36.603-14.91,75.922-21.29,109.295-19.585c33.373-1.706,72.692,4.675,109.295,19.585c15.628,6.365,29.179,8.774,40.733,8.774 c35.718,0,52.341-23.004,52.341-23.004c-27.047,13.062-58.912,10.985-84.159-5.307 C307.939,119.744,266.716,108.388,225.589,108.815z"/> <path style="fill:#FFB600;" d="M169.704,436.67L169.704,436.67c0-13.598,11.023-24.621,24.621-24.621h62.527 c13.598,0,24.621,11.023,24.621,24.621l0,0H169.704z"/> <path style="fill:#EDA507;" d="M138.471,461.291v-13.816c0-5.968,4.838-10.805,10.805-10.805h152.624 c5.968,0,10.805,4.838,10.805,10.805v13.816H138.471z"/> <circle style="fill:#FFB600;" cx="226.577" cy="41.747" r="40.498"/> <path style="fill:#E86B2D;" d="M322,323.253c0,38.809,31.461,70.27,70.27,70.27c38.809,0,70.27-31.461,70.27-70.27H322z"/> <path style="fill:#E86B2D;" d="M0,323.253c0,38.809,31.461,70.27,70.27,70.27c38.809,0,70.27-31.461,70.27-70.27H0z"/> </g> </g>
</svg>